<svg width="341" height="266" viewBox="0 0 341 266" fill="none" xmlns="http://www.w3.org/2000/svg">
<path opacity="0.4" d="M360.859 -155.438L360.859 265.999M247.147 -155.438L247.147 265.999M133.434 -155.438L133.434 265.999M503 -62.6961L81 -62.6961M503 50.8648L81 50.8647M417.716 -155.438L417.716 265.999M304.003 -155.438L304.003 265.999M190.29 -155.438L190.29 265.999M503 -5.91567L81 -5.91572M503 107.645L81 107.645M379.811 -155.438L379.811 265.999M266.099 -155.438L266.099 265.999M152.386 -155.438L152.386 265.999M503 -43.7693L81 -43.7693M503 69.7916L81 69.7915M436.668 -155.438L436.668 265.999M322.955 -155.438L322.955 265.999M209.243 -155.438L209.242 265.999M503 13.0111L81 13.0111M503 126.572L81 126.572M398.763 -155.438L398.763 265.999M285.051 -155.438L285.051 265.999M171.338 -155.438L171.338 265.999M503 -24.8425L81 -24.8425M503 88.7184L81 88.7183M455.62 -155.438L455.62 265.999M341.907 -155.438L341.907 265.999M228.195 -155.438L228.195 265.999M503 31.938L81 31.9379M503 145.499L81 145.499" stroke="url(#paint0_radial_1_6580)" stroke-opacity="0.3" stroke-width="0.281521"/>
<g opacity="0.5" filter="url(#filter0_f_1_6580)">
<rect x="114.134" y="-338.719" width="437" height="437" rx="218.5" fill="#E9E8FF"/>
</g>
<defs>
<filter id="filter0_f_1_6580" x="0.133789" y="-452.719" width="665" height="665" filterUnits="userSpaceOnUse" color-interpolation-filters="sRGB">
<feFlood flood-opacity="0" result="BackgroundImageFix"/>
<feBlend mode="normal" in="SourceGraphic" in2="BackgroundImageFix" result="shape"/>
<feGaussianBlur stdDeviation="57" result="effect1_foregroundBlur_1_6580"/>
</filter>
<radialGradient id="paint0_radial_1_6580" cx="0" cy="0" r="1" gradientUnits="userSpaceOnUse" gradientTransform="translate(292 55.281) rotate(90) scale(210.718 211)">
<stop stop-color="#4A4A4A"/>
<stop offset="1" stop-color="#A3C9EE" stop-opacity="0.13"/>
</radialGradient>
</defs>
</svg>
